<svg xmlns="http://www.w3.org/2000/svg">
  <defs>
    <symbol viewBox="0 0 24 24" id="icon-about">
      <path d="M12 0C5.926 0 1 4.477 1 10s4.926 10 11 10v4s11-5.36 11-14c0-5.523-4.926-10-11-10zm1.223 15.125h-2.446V8.16h2.446zm-1.22-8.926c-1.323 0-1.331-.976-1.331-1.203 0-.23 0-1.195 1.332-1.195 1.336 0 1.332.965 1.332 1.195 0 .227-.008 1.203-1.332 1.203z"/>
    </symbol>
    <symbol viewBox="0 0 24 24" id="icon-contacts">
      <path d="M18 0H2v20l2.465 4H21V5.723zm-8 6a1.999 1.999 0 1 1 0 4 1.999 1.999 0 1 1 0-4zm-1.383 5.023a2.947 2.947 0 0 0 2.762 0c.89.235 1.586.786 1.906 1.977H6.711c.32-1.191 1.016-1.742 1.906-1.977zM19 22H5.535L4.32 20H18V4.137l1 2.14z"/>
    </symbol>
    <symbol viewBox="0 0 24 24" id="icon-home">
      <path d="M12 3.906l-.25.156-11.5 7 .5.876L12 5.093l11.25 6.843.5-.874L20 8.78V4h-2v3.563l-5.75-3.5zM12 6.5l-10 6V24h20V12.5zM9 13h6v9H9z"/>
    </symbol>
  </defs>
</svg>